# xmcd CD database file
#
# Track frame offsets:
#	150
#	17337
#	34930
#	53700
#	80287
#	99225
#	123325
#
# Disc length: 2040 seconds
#
# Revision: 0
# Processed by: cddbd v1.4PL0 Copyright (c) Steve Scherf et al.
# Submitted via: CDex 1.50
#
DISCID=4507f607
DTITLE=John Klemmer - Blowin' Gold
DYEAR=1969
DGENRE=Jazz
TTITLE0=Excursion #2
TTITLE1=My Love Has Butterfly Wings
TTITLE2=My Heart Songs
TTITLE3=Hey Jude
TTITLE4=Third Stone From The Sun
TTITLE5=Free Soul
TTITLE6=Children Of The Earth Flames
EXTD=YEAR: 1969
EXTT0=
EXTT1=
EXTT2=
EXTT3=
EXTT4=
EXTT5=
EXTT6=
PLAYORDER=
